<svg width="128" height="128" viewBox="0 0 128 128" fill="none" xmlns="http://www.w3.org/2000/svg">
<rect x="10" y="13.5996" width="100" height="100" rx="4" fill="#31425E"/>
<g filter="url(#filter0_b_196_17)">
<rect x="19" y="22.5996" width="100" height="100" rx="4" fill="#2C3035" fill-opacity="0.9"/>
</g>
<path d="M49.64 102V43.07H74.374C77.03 43.07 79.4647 43.6233 81.678 44.73C83.8913 45.8367 85.828 47.303 87.488 49.129C89.148 50.955 90.4207 53.0023 91.306 55.271C92.1913 57.5397 92.634 59.8637 92.634 62.243C92.634 65.5077 91.887 68.634 90.393 71.622C88.9543 74.5547 86.8793 76.934 84.168 78.76C81.512 80.586 78.4133 81.499 74.872 81.499H58.936V102H49.64ZM58.936 73.282H74.291C76.0617 73.282 77.611 72.8117 78.939 71.871C80.267 70.875 81.2907 69.547 82.01 67.887C82.7847 66.227 83.172 64.3457 83.172 62.243C83.172 60.085 82.7293 58.176 81.844 56.516C80.9587 54.856 79.7967 53.5833 78.358 52.698C76.9747 51.7573 75.453 51.287 73.793 51.287H58.936V73.282Z" fill="white"/>
<circle cx="34" cy="27.5996" r="4" fill="#31425F"/>
<circle cx="94" cy="27.5996" r="4" fill="#31425F"/>
<circle cx="64" cy="27.5996" r="4" fill="#31425F"/>
<path d="M29 13.1316C29 2.09961 41 1.09984 41 17.5996C41 26.0996 37 30.0996 34.5 27.5996" stroke="#FD7E14" stroke-width="3" stroke-linecap="round"/>
<path d="M89 13.1316C89 2.09961 101 1.09984 101 17.5996C101 26.0996 97 30.0996 94.5 27.5996" stroke="#FD7E14" stroke-width="3" stroke-linecap="round"/>
<path d="M59 13.1316C59 2.09961 71 1.09984 71 17.5996C71 26.0996 67 30.0996 64.5 27.5996" stroke="#FD7E14" stroke-width="3" stroke-linecap="round"/>
<rect x="22" y="13.5996" width="10" height="4" fill="#31425F"/>
<rect x="81" y="13.5996" width="10" height="4" fill="#31425F"/>
<rect x="55" y="13.5996" width="10" height="4" fill="#31425F"/>
<defs>
<filter id="filter0_b_196_17" x="13" y="16.5996" width="112" height="112" filterUnits="userSpaceOnUse" color-interpolation-filters="sRGB">
<feFlood flood-opacity="0" result="BackgroundImageFix"/>
<feGaussianBlur in="BackgroundImageFix" stdDeviation="3"/>
<feComposite in2="SourceAlpha" operator="in" result="effect1_backgroundBlur_196_17"/>
<feBlend mode="normal" in="SourceGraphic" in2="effect1_backgroundBlur_196_17" result="shape"/>
</filter>
</defs>
</svg>
